<?xml version="1.0" encoding="UTF-8" standalone="no"?>
<!DOCTYPE svg PUBLIC "-//W3C//DTD SVG 1.1//EN" "http://www.w3.org/Graphics/SVG/1.1/DTD/svg11.dtd">
<svg width="100%" height="100%" viewBox="0 0 1080 1080" version="1.1" xmlns="http://www.w3.org/2000/svg" xmlns:xlink="http://www.w3.org/1999/xlink" xml:space="preserve" xmlns:serif="http://www.serif.com/" style="fill-rule:evenodd;clip-rule:evenodd;stroke-linejoin:round;stroke-miterlimit:2;">
    <g transform="matrix(2.26415,0,0,2.26415,-703.122,-621.509)">
        <g transform="matrix(0.436261,0,0,0.436261,311.065,234.057)">
            <circle cx="545.5" cy="287.5" r="90.5"/>
        </g>
        <g transform="matrix(0.746213,0,0,0.563035,260.261,180.712)">
            <rect x="319" y="408" width="136" height="247"/>
        </g>
        <g transform="matrix(2.00288e-17,-0.327095,1.02862,6.29849e-17,2.33291,559.259)">
            <path d="M455,429.624L455,633.376C455,645.311 424.53,655 387,655C349.47,655 319,645.311 319,633.376L319,429.624C319,417.689 349.47,408 387,408C424.53,408 455,417.689 455,429.624Z"/>
        </g>
        <g transform="matrix(-0.31595,-0.0846584,0.20126,-0.751113,518.848,1047.78)">
            <path d="M455,436.604L455,626.396C455,642.183 424.53,655 387,655C349.47,655 319,642.183 319,626.396L319,436.604C319,420.817 349.47,408 387,408C424.53,408 455,420.817 455,436.604Z"/>
        </g>
        <g transform="matrix(-0.31595,0.0846584,-0.20126,-0.751113,823.912,982.251)">
            <path d="M455,436.604L455,626.396C455,642.183 424.53,655 387,655C349.47,655 319,642.183 319,626.396L319,436.604C319,420.817 349.47,408 387,408C424.53,408 455,420.817 455,436.604Z"/>
        </g>
    </g>
    <g transform="matrix(1.83673,0,0,1.83673,-582.245,-402.245)">
        <path d="M611,219C773.263,219 905,350.737 905,513C905,675.263 773.263,807 611,807C448.737,807 317,675.263 317,513C317,350.737 448.737,219 611,219ZM611,246.222C463.761,246.222 344.222,365.761 344.222,513C344.222,660.239 463.761,779.778 611,779.778C758.239,779.778 877.778,660.239 877.778,513C877.778,365.761 758.239,246.222 611,246.222Z"/>
    </g>
</svg>
