<?xml version="1.0" encoding="UTF-8" standalone="no"?>
<!DOCTYPE svg PUBLIC "-//W3C//DTD SVG 1.1//EN" "http://www.w3.org/Graphics/SVG/1.1/DTD/svg11.dtd">
<svg width="100%" height="100%" viewBox="0 0 510 310" version="1.1" xmlns="http://www.w3.org/2000/svg" xmlns:xlink="http://www.w3.org/1999/xlink" xml:space="preserve" xmlns:serif="http://www.serif.com/" style="fill-rule:evenodd;clip-rule:evenodd;stroke-linecap:round;stroke-linejoin:round;stroke-miterlimit:1.5;">
    <g transform="matrix(0.819672,0,0,0.867052,-154.016,-215.231)">
        <path d="M804,288.6L804,565.4C804,584.496 787.6,600 767.4,600L230.6,600C210.4,600 194,584.496 194,565.4L194,288.6C194,269.504 210.4,254 230.6,254L767.4,254C787.6,254 804,269.504 804,288.6Z" style="fill:rgb(235,235,235);stroke:black;stroke-width:11.85px;"/>
    </g>
    <g transform="matrix(1,0,0,1,-285,-385)">
        <g transform="matrix(0.891992,0,0,0.891992,301.347,50.8246)">
            <path d="M229,470.561L229,609.439" style="fill:none;stroke:black;stroke-width:35.87px;"/>
        </g>
        <g transform="matrix(0.891992,0,0,0.891992,370.121,50.8246)">
            <path d="M229,470.561L229,609.439" style="fill:none;stroke:black;stroke-width:35.87px;"/>
        </g>
    </g>
</svg>
