<?xml version="1.0" encoding="UTF-8" standalone="no"?>
<!DOCTYPE svg PUBLIC "-//W3C//DTD SVG 1.1//EN" "http://www.w3.org/Graphics/SVG/1.1/DTD/svg11.dtd">
<svg width="50px" height="50px" viewBox="0 0 1080 1080" version="1.1" xmlns="http://www.w3.org/2000/svg" xmlns:xlink="http://www.w3.org/1999/xlink" xml:space="preserve" xmlns:serif="http://www.serif.com/" style="fill-rule:evenodd;clip-rule:evenodd;stroke-linejoin:round;stroke-miterlimit:2;">
    <g transform="matrix(1.05151,0,0,1.04763,-59.8328,-50.4326)">
        <path d="M569.5,51C853.46,51 1084,281.54 1084,565.5C1084,849.46 853.46,1080 569.5,1080C285.54,1080 55,849.46 55,565.5C55,281.54 285.54,51 569.5,51ZM567.601,143.317C337.222,143.317 150.183,330.356 150.183,560.736C150.183,791.116 337.222,978.155 567.601,978.155C797.981,978.155 985.02,791.116 985.02,560.736C985.02,330.356 797.981,143.317 567.601,143.317Z"/>
    </g>
    <g transform="matrix(0.6708,0.6708,-0.6708,0.6708,371.55,-162.34)">
        <path d="M873.298,173.721L760,772L278,290L873.298,173.721Z"/>
    </g>
</svg>
